<?xml version="1.0" encoding="UTF-8" standalone="no"?>
<!DOCTYPE svg  PUBLIC '-//W3C//DTD SVG 1.1//EN'  'http://www.w3.org/Graphics/SVG/1.1/DTD/svg11.dtd'>
<svg version="1.1" xmlns="http://www.w3.org/2000/svg">
<defs>
<font id="surrounding-reg" horiz-adv-x="500">
<font-face font-family="surrounding__.)" panose-1="2 11 6 4 6 2 2 2 2 3" underline-thickness="50" x-height="420" cap-height="630" bbox="20 -227 752 818" units-per-em="1000" font-weight="400" unicode-range="U+0020-FB02" ascent="800" underline-position="-175" descent="-200"/>
<missing-glyph/>
<glyph glyph-name="space" horiz-adv-x="300" unicode=" "/>
<glyph glyph-name="exclam" horiz-adv-x="149" d="M40 630h69v-501h-69v501zM109 0h-69v69h69v-69z" unicode="!"/>
<glyph glyph-name="quotedbl" horiz-adv-x="268" d="M74 630q15 0 25 -10t10 -25q0 -40 -21.5 -72.5t-47.5 -32.5q-12 0 -12 4q0 2 4 10t8 21.5t4 29.5q0 13 -3 29q-1 2 -1 11q0 14 10 24.5t24 10.5zM173 630q15 0 25 -10t10 -25q0 -40 -21.5 -72.5t-47.5 -32.5q-12 0 -12 4q0 2 4 10t8 21.5t4 29.5q0 13 -3 29q-1 2 -1 11 q0 14 10 24.5t24 10.5z" unicode='&quot;'/>
<glyph glyph-name="numbersign" horiz-adv-x="395" d="M226 158v58h-58v-58h-70v58h-58v70h58v58h-58v70h58v58h70v-58h58v58h70v-58h59v-70h-59v-58h59v-70h-59v-58h-70zM226 286v58h-58v-58h58z" unicode="#"/>
<glyph glyph-name="dollar" horiz-adv-x="374" d="M222 352v-8q18 -5 29 -11q27 -11 46 -32q18 -20 28 -44q7 -21 7 -36q0 -2 -0.5 -6.5t-0.5 -6.5q-3 -24 -18 -45q-18 -21 -38 -33q-26 -15 -53 -20v-109h-70v108q-31 4 -58 18q-30 16 -49 37l51 47q11 -12 29 -22q9 -4 27 -10v108q-5 1 -9.5 3t-10.5 4.5t-10 3.5 q-28 15 -45 32q-17 19 -28 43q-7 19 -7 35q0 2 0.5 6.5t0.5 6.5q3 25 18 46q17 21 38 34q24 15 53 20v110h70v-1v-108q33 -6 57 -19q35 -19 49 -38l-52 -48q-8 13 -29 24q-11 6 -25 9v-98zM222 269v-89q2 1 5.5 2.5t4.5 1.5q12 5 20 14q8 11 8 20q0 1 0.5 3t0.5 3 q0 17 -20 34q-1 1 -8 5t-11 6zM152 361v89q-2 -1 -5.5 -2.5t-4.5 -1.5q-31 -12 -31 -38q0 -18 22 -36q1 -1 8 -5t11 -6z" unicode="$"/>
<glyph glyph-name="percent" horiz-adv-x="589" d="M165 631q52 0 89.5 -37t37.5 -90q0 -52 -37.5 -89t-89.5 -37q-51 0 -88 37t-37 89q0 53 37 90t88 37zM222 504q0 24 -17 40.5t-40 16.5t-39 -16t-16 -41q0 -24 16 -40t39 -16t40 16.5t17 39.5zM423 254q52 0 89 -37t37 -89q0 -53 -37 -90t-89 -37q-51 0 -88 37t-37 90 q0 52 37 89t88 37zM479 128q0 23 -16.5 39.5t-39.5 16.5t-39 -16t-16 -40q0 -25 16 -41t39 -16t39.5 16.5t16.5 40.5zM40 1l425 630h84l-424 -630h-85z" unicode="%"/>
<glyph glyph-name="ampersand" horiz-adv-x="447" d="M407 110l-58 -11l-1 -1q-14 -30 -34 -51q-22 -21 -51 -33q-27 -13 -63 -13t-62 13q-28 12 -51 33q-23 23 -34 51q-13 30 -13 62q0 30 13 63q11 28 34 51q14 14 35 27q-29 29 -29 73t31.5 75.5t75.5 31.5q45 0 76 -31.5t31 -75.5h-70q0 15 -10.5 26t-26.5 11 q-15 0 -26 -11t-11 -26q0 -16 11 -26.5t26 -10.5v-86q-37 0 -63.5 -26t-26.5 -64t26.5 -64t63.5 -26q38 0 64 26t26 63l105 19z" unicode="&amp;"/>
<glyph glyph-name="quotesingle" horiz-adv-x="169" d="M74 630q15 0 25 -10t10 -25q0 -40 -21.5 -72.5t-47.5 -32.5q-12 0 -12 4q0 2 4 10t8 21.5t4 29.5q0 13 -3 29q-1 2 -1 11q0 14 10 24.5t24 10.5z" unicode="&apos;"/>
<glyph glyph-name="parenleft" horiz-adv-x="199" d="M159 459q-49 -65 -49 -147q0 -78 44 -141l-56 -41q-58 80 -58 182q0 105 62 188z" unicode="("/>
<glyph glyph-name="parenright" horiz-adv-x="199" d="M40 459l56 41q63 -82 63 -188q0 -102 -58 -182l-56 41q44 63 44 141q0 82 -49 147z" unicode=")"/>
<glyph glyph-name="asterisk" horiz-adv-x="388" d="M348 521l-84 -48l84 -49l-35 -60l-84 48v-97h-70v97l-84 -48l-35 60l84 49l-84 48l35 61l84 -49v97h70v-97l84 49z" unicode="*"/>
<glyph glyph-name="plus" horiz-adv-x="394" d="M40 350h122v122h70v-122h122v-70h-122v-122h-70v122h-122v70z" unicode="+"/>
<glyph glyph-name="comma" horiz-adv-x="169" d="M74 69q15 0 25 -10t10 -25q0 -40 -21.5 -72.5t-47.5 -32.5q-12 0 -12 4q0 2 4 10t8 21.5t4 29.5q0 12 -3 29q-1 2 -1 11q0 14 10 24.5t24 10.5z" unicode=","/>
<glyph glyph-name="hyphen" horiz-adv-x="478" d="M40 316h398v-71h-398v71z" unicode="-"/>
<glyph glyph-name="period" horiz-adv-x="169" d="M109 0h-69v69h69v-69z" unicode="."/>
<glyph glyph-name="slash" horiz-adv-x="437" d="M397 630l-280 -630h-77l281 630h76z" unicode="/"/>
<glyph glyph-name="zero" horiz-adv-x="710" d="M110 315q0 -101 71.5 -173t173.5 -72q101 0 173 72t72 173t-72 173t-173 72q-102 0 -173.5 -72t-71.5 -173zM40 315q0 130 92.5 222.5t222.5 92.5t222.5 -92.5t92.5 -222.5t-92.5 -222.5t-222.5 -92.5q-131 0 -223 92t-92 223z" unicode="0"/>
<glyph glyph-name="one" horiz-adv-x="213" d="M173 0h-70v531l-14 -13l-49 49l62 63h71v-630z" unicode="1"/>
<glyph glyph-name="two" horiz-adv-x="368" d="M40 75l208 374l2 3q8 18 8 34q0 31 -21.5 52.5t-52.5 21.5t-52.5 -21.5t-21.5 -52.5h-70q0 59 42.5 101.5t101.5 42.5q39 0 72.5 -19.5t51.5 -52.5q20 -32 20 -72q0 -37 -17 -66l-3 -6l-190 -344h210v-70h-288v70v5z" unicode="2"/>
<glyph glyph-name="three" horiz-adv-x="494" d="M244 69q26 0 54 11q26 10 45 30q19 19 30 44q11 28 11 55q0 26 -11 54q-11 25 -30 45t-45 30q-28 11 -54 11v71q29 0 49 20t20 49t-20 49.5t-49 20.5q-25 0 -44 -15.5t-24 -38.5h-72q6 53 46 89t94 36q58 0 99 -41.5t41 -99.5q0 -56 -38 -96q25 -13 46 -35q28 -28 45 -67 q17 -40 17 -82t-17 -82q-17 -37 -45 -66q-28 -28 -67 -45q-35 -16 -81 -16q-47 0 -82 16q-38 16 -67 45t-45 66q-5 12 -10 29h74l1 -2q11 -25 30 -44t44 -30q28 -11 55 -11z" unicode="3"/>
<glyph glyph-name="four" horiz-adv-x="427" d="M387 421v-70h-70v-351h-70v351h-207v72l207 207h70v-209h70zM138 421h109v109z" unicode="4"/>
<glyph glyph-name="five" horiz-adv-x="475" d="M85 630h302v-71h-237l-12 -139h87q41 0 81 -17q39 -17 67 -45t45 -67q17 -40 17 -82t-17 -82q-16 -37 -45 -66q-28 -28 -67 -45q-35 -16 -81 -16q-47 0 -82 16q-38 16 -67 45q-21 21 -36 48l61 35q12 -22 25 -34q19 -19 44 -30q28 -11 55 -11q26 0 54 11q25 10 45 30 q19 19 30 44q11 28 11 55q0 26 -11 54q-10 25 -30 45t-45 30q-28 11 -54 11h-165z" unicode="5"/>
<glyph glyph-name="six" d="M250 69q27 0 55 11q26 11 44 30q19 19 30 44q11 23 11 55q0 30 -11 54q-11 25 -30 45q-18 19 -44 30q-28 11 -55 11q-26 0 -54 -11q-26 -10 -45 -30q-18 -20 -30 -45q-11 -28 -11 -54q0 -27 11 -55q11 -24 30 -44t45 -30q28 -11 54 -11zM250 420q40 0 82 -17 q39 -17 67 -45t45 -67q16 -35 16 -82t-16 -82q-16 -37 -45 -66q-28 -28 -67 -45q-36 -16 -82 -16t-82 16q-38 16 -66 45t-45 66q-17 40 -17 82t17 82q2 4 3 7l155 332h77l-102 -219q28 9 60 9z" unicode="6"/>
<glyph glyph-name="seven" horiz-adv-x="477" d="M323 559h-283v71h397l-319 -630h-78z" unicode="7"/>
<glyph glyph-name="eight" d="M250 69q26 0 54 11q26 10 45 30q19 19 30 44q11 28 11 55q0 26 -11 54q-11 25 -30 45t-45 30q-28 11 -54 11q-27 0 -55 -11q-25 -11 -44 -30q-19 -20 -30 -45q-11 -28 -11 -54q0 -27 11 -55q11 -25 30 -44t44 -30q28 -11 55 -11zM250 420q29 0 49 20t20 49t-20 49.5 t-49 20.5t-49.5 -20.5t-20.5 -49.5t20.5 -49t49.5 -20zM352 393q25 -13 46 -35q28 -28 45 -67q17 -40 17 -82t-17 -82q-17 -37 -45 -66q-28 -28 -67 -45q-35 -16 -81 -16q-47 0 -82 16q-38 16 -67 45t-45 66q-16 35 -16 82t16 82q17 39 45 67q23 23 46 35q-38 41 -38 96 q0 59 41.5 100t99.5 41t99 -41.5t41 -99.5q0 -56 -38 -96z" unicode="8"/>
<glyph glyph-name="nine" d="M250 561q-26 0 -54 -11q-26 -12 -45 -30q-18 -20 -30 -45q-11 -28 -11 -54q0 -27 11 -55q12 -26 30 -44q19 -20 45 -30q24 -11 54 -11q31 0 55 11q26 11 44 30q19 18 30 44q11 24 11 55q0 30 -11 54q-11 25 -30 45q-18 18 -44 30q-28 11 -55 11zM250 210q-45 0 -81 16 q-39 17 -67 45q-29 29 -45 67q-17 42 -17 83q0 40 17 82q17 37 45 66q28 27 67 44q40 17 81 17q42 0 82 -17q39 -17 67 -44q29 -29 45 -66q16 -36 16 -82q0 -47 -16 -83l-3 -6l-155 -332h-77l102 218q-32 -8 -61 -8z" unicode="9"/>
<glyph glyph-name="colon" horiz-adv-x="169" d="M109 0h-69v69h69v-69zM109 129h-69v69h69v-69z" unicode=":"/>
<glyph glyph-name="semicolon" horiz-adv-x="169" d="M109 198v-69h-69v69h69zM74 69q15 0 25 -10t10 -25q0 -40 -21.5 -72.5t-47.5 -32.5q-12 0 -12 4q0 2 4 10t8 21.5t4 29.5q0 12 -3 29q-1 2 -1 11q0 14 10 24.5t24 10.5z" unicode=";"/>
<glyph glyph-name="less" horiz-adv-x="352" d="M312 142l-49 -49l-223 222l223 223l49 -50l-173 -173z" unicode="&lt;"/>
<glyph glyph-name="equal" horiz-adv-x="395" d="M40 286h315v-70h-315v70zM40 414h315v-70h-315v70z" unicode="="/>
<glyph glyph-name="greater" horiz-adv-x="352" d="M40 142l173 173l-173 173l49 50l223 -223l-223 -222z" unicode="&gt;"/>
<glyph glyph-name="question" horiz-adv-x="401" d="M194 129q-25 0 -46 9q-20 8 -38 26t-26 38q-9 21 -9 46t9 46t26 38q16 16 38 26q21 9 46 9q23 0 37 7q19 9 31 21q13 13 21 32t8 37t-8 37q-7 19 -21 31q-12 14 -31 21q-19 8 -37 8t-37 -8t-32 -21q-12 -12 -21 -31l-64 28q13 30 36 53t53 36t65 13q32 0 65 -13 q30 -13 53 -36t36 -53q13 -32 13 -65q0 -35 -13 -65t-36 -53t-53 -36q-27 -13 -65 -13q-10 0 -19 -4q-8 -3 -16 -10q-7 -8 -10 -16q-4 -7 -4 -19t4 -19q3 -8 10 -16q8 -7 16 -10q7 -4 19 -4t19 4q9 4 15 10q7 7 11 16l64 -27q-11 -24 -25 -38q-16 -16 -38 -25 q-19 -10 -46 -10zM166 0v69h69v-69h-69z" unicode="?"/>
<glyph glyph-name="at" horiz-adv-x="710" d="M447 219v102q-7 -4 -23 -10q-28 -10 -61 -12q-39 -1 -65 -17q-28 -16 -28 -43q2 -23 31 -39q24 -12 54 -12h12q22 0 46 8q18 7 34 23zM40 316q0 130 92.5 222.5t222.5 92.5t222.5 -92.5t92.5 -222.5q0 -106 -62.5 -189t-160.5 -113v75v53q-1 -1 -10 -4q-36 -13 -68 -14 h-11q-30 0 -51 7q-30 9 -51 24q-23 18 -35 37q-14 24 -14 50q0 19 10 42q11 22 31 39q21 17 49 27t61 12q34 1 65 19q8 4 13 10q-6 11 -17 22q-14 14 -30 20q-19 8 -36 8q-16 0 -37 -8q-16 -6 -30 -20q-3 -3 -9 -11l-52 37q8 11 16 19q17 17 45 32q27 12 59 14h1h1h1h1h1h1 h2h1h1h1q31 0 58 -12h1v-1h1h1v-1h1h1q28 -15 45 -32q21 -21 34 -50q12 -28 12 -61v-221l-2 -2q92 74 92 192q0 101 -72 173t-173 72t-173 -72t-72 -173q0 -102 72 -173.5t173 -71.5q18 0 27 1v-70q-9 -1 -27 -1q-131 0 -223 92.5t-92 222.5z" unicode="@"/>
<glyph glyph-name="A" horiz-adv-x="625" d="M312 657l293 -657h-77l-107 240h-218l-106 -240h-77zM390 310l-78 174l-77 -174h155z" unicode="A"/>
<glyph glyph-name="B" horiz-adv-x="472" d="M221 351h-110v-280h110q58 0 99 41t41 99t-41 99t-99 41zM227 559h-116v-137h116q28 0 48 20t20 49q0 28 -20 48t-48 20zM221 0h-181v630h187q58 0 98.5 -40.5t40.5 -98.5v-1q0 -55 -39 -96q49 -28 77 -76.5t28 -106.5q0 -88 -62 -149.5t-149 -61.5z" unicode="B"/>
<glyph glyph-name="C" horiz-adv-x="540" d="M40 315q0 130 92.5 222.5t222.5 92.5q65 0 127 -27l-28 -64q-45 21 -99 21q-101 0 -173 -72t-72 -173t72 -173t173 -72q57 0 113 27l32 -62q-65 -35 -145 -35q-131 0 -223 92t-92 223z" unicode="C"/>
<glyph glyph-name="D" horiz-adv-x="543" d="M189 558h-78v-487h78q101 0 172 71t71 173q0 101 -71 172t-172 71zM40 0v629h149q131 0 222.5 -91.5t91.5 -222.5t-92 -223t-222 -92h-149z" unicode="D"/>
<glyph glyph-name="E" horiz-adv-x="478" d="M110 421h122v-70h-122v-281h328v-70h-398v630h398v-71h-328v-138z" unicode="E"/>
<glyph glyph-name="F" horiz-adv-x="478" d="M110 421h122v-70h-122v-351h-70v630h398v-71h-328v-138z" unicode="F"/>
<glyph glyph-name="G" horiz-adv-x="710" d="M40 315q0 130 92.5 222.5t222.5 92.5q65 0 127 -27l-28 -64q-45 21 -99 21q-101 0 -173 -72t-72 -173t72 -173t173 -72q92 0 160.5 60t82.5 150h-186v70h256q2 -22 2 -35q0 -130 -92.5 -222.5t-222.5 -92.5q-131 0 -223 92t-92 223z" unicode="G"/>
<glyph glyph-name="H" horiz-adv-x="478" d="M110 421h258v209h70v-630h-70v351h-258v-351h-70v630h70v-209z" unicode="H"/>
<glyph glyph-name="I" horiz-adv-x="220" d="M40 630h140v-70h-35v-490h35v-70h-140v70h35v490h-35v70z" unicode="I"/>
<glyph glyph-name="J" horiz-adv-x="405" d="M295 164v466h70v-466q0 -68 -48 -116t-116 -48q-60 0 -105.5 39t-55.5 97h73q9 -29 33 -47t55 -18q39 0 66.5 27t27.5 66z" unicode="J"/>
<glyph glyph-name="K" horiz-adv-x="543" d="M110 446l219 184h108v-1l-257 -215l323 -414h-89l-288 369l-16 -14v-355h-70v629h70v-183z" unicode="K"/>
<glyph glyph-name="L" horiz-adv-x="477" d="M40 630h70v-560h327v-70h-397v630z" unicode="L"/>
<glyph glyph-name="M" horiz-adv-x="665" d="M549 630h76v-630h-70v457l-185 -457h-75l-185 457v-457h-70v630h75l217 -536z" unicode="M"/>
<glyph glyph-name="N" horiz-adv-x="595" d="M485 630h70v-629v-1h-85l-360 528v-528h-70v630h85l360 -527v527z" unicode="N"/>
<glyph glyph-name="O" horiz-adv-x="710" d="M110 315q0 -101 71.5 -173t173.5 -72q101 0 173 72t72 173q0 102 -72 173.5t-173 71.5q-102 0 -173.5 -71.5t-71.5 -173.5zM40 315q0 130 92.5 222.5t222.5 92.5t222.5 -92.5t92.5 -222.5t-92.5 -222.5t-222.5 -92.5q-131 0 -223 92t-92 223z" unicode="O"/>
<glyph glyph-name="P" horiz-adv-x="478" d="M298 559h-187v-137h187q29 0 49 20t20 48q0 29 -20 49t-49 20zM298 351h-188v-350h-70v629h258q58 0 99 -41t41 -99t-41 -98.5t-99 -40.5z" unicode="P"/>
<glyph glyph-name="Q" horiz-adv-x="710" d="M40 315q0 130 92.5 222.5t222.5 92.5t222.5 -92.5t92.5 -222.5q0 -128 -87 -218l47 -46l-51 -51l-51 52q-80 -52 -173 -52q-131 0 -223 92t-92 223zM110 315q0 -101 72 -173t173 -72q65 0 122 33l-29 29l50 50l35 -35q67 69 67 168q0 102 -71.5 173.5t-173.5 71.5 q-101 0 -173 -71.5t-72 -173.5z" unicode="Q"/>
<glyph glyph-name="R" horiz-adv-x="544" d="M298 559h-187v-137h187q29 0 49 20t20 48q0 29 -20 49t-49 20zM181 351h-71v-350h-70v628v1h258q58 0 99 -41t41 -99t-41 -98.5t-99 -40.5h-31l237 -350h-86z" unicode="R"/>
<glyph glyph-name="S" horiz-adv-x="515" d="M441 528q19 -34 19 -79h-70q0 30 -13 47q-10 17 -34 34q-21 14 -47 22q-27 9 -52 9q-21 0 -49 -7q-27 -8 -43 -21q-18 -12 -31 -34q-11 -20 -11 -43q0 -24 2 -31q1 -16 13 -29q11 -13 39 -23q27 -9 80 -9q54 0 101 -14q43 -14 72 -36q29 -23 43 -51q15 -28 15 -59 q0 -44 -16 -83q-17 -39 -45 -64q-29 -26 -70 -42q-40 -15 -88 -15q-50 0 -90 18q-38 17 -68 47q-28 28 -43 65q-15 33 -15 81h70q0 -33 10 -56q12 -27 29 -43q18 -19 46 -31q30 -11 61 -11q70 0 109 36q40 37 40 98q0 19 -11 36q-15 20 -32 29q-23 12 -51 19t-67 7 q-68 0 -108 15q-41 15 -62 39t-28 53q-6 28 -6 54q0 40 18 73q16 30 47 55q27 22 66 34q36 12 73 12q38 0 77 -12q36 -10 70 -35q31 -24 50 -55z" unicode="S"/>
<glyph glyph-name="T" horiz-adv-x="395" d="M355 630v-70h-122v-559h-70v559h-123v70h315z" unicode="T"/>
<glyph glyph-name="U" horiz-adv-x="543" d="M40 234v396h71v-396q0 -68 47 -115t113 -47q67 0 114 47t47 115v396h71v-396q0 -96 -68.5 -164.5t-163.5 -68.5q-96 0 -163.5 68.5t-67.5 164.5z" unicode="U"/>
<glyph glyph-name="V" horiz-adv-x="595" d="M114 630l183 -532l184 532h74l-217 -630h-81l-217 630h74z" unicode="V"/>
<glyph glyph-name="W" horiz-adv-x="738" d="M417 630l105 -491l104 491h72l-134 -630h-84l-111 522l-111 -522h-84l-134 630h72l104 -491l104 491h97z" unicode="W"/>
<glyph glyph-name="X" horiz-adv-x="590" d="M125 630l170 -252l170 252h85l-213 -315l213 -315h-85l-170 253l-170 -253h-85l213 315l-213 315h85z" unicode="X"/>
<glyph glyph-name="Y" horiz-adv-x="477" d="M120 630l118 -214l119 214h80l-164 -295v-334h-70v334l-163 295h80z" unicode="Y"/>
<glyph glyph-name="Z" horiz-adv-x="589" d="M40 0v71l416 488h-416v71h509v-71l-416 -488h416v-71h-509z" unicode="Z"/>
<glyph glyph-name="bracketleft" horiz-adv-x="220" d="M40 630h140v-70h-70v-490h70v-70h-140v630z" unicode="["/>
<glyph glyph-name="backslash" horiz-adv-x="437" d="M116 630l281 -630h-77l-280 630h76z" unicode="\"/>
<glyph glyph-name="bracketright" horiz-adv-x="220" d="M180 630v-630h-140v70h70v490h-70v70h140z" unicode="]"/>
<glyph glyph-name="asciicircum" horiz-adv-x="275" d="M138 630l97 -82l-45 -53l-52 44l-53 -44l-45 53z" unicode="^"/>
<glyph glyph-name="underscore" horiz-adv-x="665" d="M40 71h585v-71h-585v71z" unicode="_"/>
<glyph glyph-name="grave" horiz-adv-x="223" d="M40 576l45 54l98 -82l-45 -53z" unicode="`"/>
<glyph glyph-name="a" horiz-adv-x="418" d="M307 103l1 -1v114q-7 -4 -26 -11q-33 -12 -68 -13q-44 -2 -72 -20q-31 -19 -31 -45q0 -29 35 -45q26 -13 60 -13h13q27 0 50 9q22 7 38 25zM129 318q-8 -8 -11 -12l-57 41q7 12 18 21q21 22 50 35q30 15 65 17h13q36 -2 64 -14h1v-1h2v-1h2v-1q28 -13 50 -35 q18 -17 38 -55q14 -34 14 -68v-245h-70v17q-2 -2 -6 -3t-6 -2q-36 -14 -75 -15h-9l-60 8q-33 9 -57 27q-24 17 -39 41q-15 25 -15 50v5q0 23 11 47t35 43q20 19 54 31q35 12 68 13q42 2 72 21q3 2 14 10q-9 16 -18 25q-15 15 -34 23q-22 8 -40 8h-1q-18 0 -40 -8 q-21 -8 -33 -23z" unicode="a"/>
<glyph glyph-name="b" horiz-adv-x="477" d="M227 352q-26 0 -54 -11q-25 -11 -45 -30q-10 -10 -18 -23v-152q6 -11 18 -23q20 -19 45 -30q28 -11 54 -11q27 0 55 11q26 11 44 30q19 19 30 44q11 23 11 55q0 30 -11 54q-10 26 -30 45q-18 19 -44 30q-28 11 -55 11zM227 1q-46 0 -82 16q-2 1 -15.5 8t-19.5 12v-36h-70 v630h70v-246q14 10 35 19q42 17 82 17t82 -17q39 -16 67 -44t45 -66q16 -35 16 -82t-16 -83q-16 -38 -45 -67q-28 -28 -67 -45q-36 -16 -82 -16z" unicode="b"/>
<glyph glyph-name="c" horiz-adv-x="461" d="M363 130l58 -41q-31 -42 -74 -64q-45 -24 -98 -24q-46 0 -81 16q-39 17 -67 45q-29 28 -45 66q-16 35 -16 82t16 82q17 39 45 67t67 45q40 17 81 17q55 0 98 -25q42 -22 74 -63l-58 -41q-21 26 -49 42t-65 16q-27 0 -55 -11q-26 -11 -44 -30q-20 -19 -30 -45 q-11 -24 -11 -54q0 -32 11 -55q11 -25 30 -44q18 -19 44 -30q28 -11 55 -11q37 0 65 16q28 17 49 44z" unicode="c"/>
<glyph glyph-name="d" horiz-adv-x="477" d="M250 352q-26 0 -54 -11q-26 -11 -45 -30t-30 -45q-11 -28 -11 -54q0 -27 11 -55q11 -25 30 -44t45 -30q28 -11 54 -11q27 0 55 11q25 11 44 30q12 12 18 23v152q-6 11 -18 23q-19 19 -44 30q-28 11 -55 11zM250 1q-46 0 -81 16q-39 17 -67 45q-29 29 -45 67 q-17 42 -17 83q0 42 17 82q17 38 45 66t67 44q40 17 81 17q42 0 82 -17q19 -7 35 -19v246h70v-602v-28h-70v36q-14 -11 -35 -20q-35 -16 -82 -16z" unicode="d"/>
<glyph glyph-name="e" d="M250 350q-21 0 -47 -8q-23 -9 -40 -22q-18 -14 -30 -33q-13 -19 -19 -41h272q-12 46 -49 74q-37 30 -87 30zM457 176h-343q6 -25 19 -42q10 -17 30 -34q17 -13 40 -22q26 -8 47 -8q41 0 72 19q30 19 50 52l59 -35q-27 -48 -74 -77q-46 -28 -107 -28q-46 0 -82 16 q-38 17 -66 45t-45 66q-17 40 -17 82t17 82q17 39 45 67q28 29 66 45q42 17 82 17q42 0 82 -17q39 -17 67 -45t45 -67q16 -35 16 -82q0 -11 -1 -18q0 -2 -2 -16z" unicode="e"/>
<glyph glyph-name="f" horiz-adv-x="289" d="M249 630v-74q-2 0 -4 -2q-19 -8 -34 -22q-15 -12 -23 -33q-9 -19 -9 -41v-37h70v-71h-70v-349h-69v349h-70v71h70v37q0 34 14 68q16 34 38 56q23 24 55 38q14 5 32 10z" unicode="f"/>
<glyph glyph-name="g" d="M173 99v-11q8 3 25 5q-4 1 -12.5 2.5t-12.5 3.5zM288 16q-24 9 -52 9q-30 0 -53 -9q-28 -12 -40 -22q-13 -11 -25 -29q-7 -19 -7 -31q0 -15 7 -30q8 -16 24 -29q16 -12 41 -22q23 -9 53 -9q28 0 52 9q26 10 41 22t24 29q7 13 7 30q0 18 -7 31q-9 14 -24 29q-16 13 -41 22 zM309 340q-27 9 -59 9q-34 0 -59 -9q-27 -10 -45 -24q-20 -15 -27 -31q-8 -18 -8 -32q0 -16 8 -30q8 -16 26 -31q18 -14 46 -24q26 -9 59 -9q32 0 59 9q28 10 46 24q18 15 26 31q8 13 8 30q0 14 -8 32q-7 13 -26 31q-18 14 -46 24zM407 429v-56q-7 0 -9 -1l1 -1 q28 -22 45 -53q16 -28 16 -65t-16 -65q-18 -30 -45 -52q-25 -20 -67 -35q-16 -5 -44 -11q5 -1 24 -7q35 -13 62 -34q26 -22 42 -52q15 -29 15 -63t-15 -63q-17 -32 -42 -51q-27 -21 -62 -34q-39 -13 -76 -13q-38 0 -77 13q-35 13 -62 34q-27 24 -42 51q-15 29 -15 63t15 63 q18 31 42 52q17 12 22 15q-2 26 -2 40t1 21q-5 2 -16 11q-27 22 -45 52q-17 32 -17 65t17 65q17 31 45 53q28 23 66 36q35 13 82 13q36 0 75 -11q37 15 82 20z" unicode="g"/>
<glyph glyph-name="h" horiz-adv-x="431" d="M216 421q34 0 68 -14q29 -12 56 -38q25 -26 37 -55q14 -34 14 -68v-245h-71v245q0 18 -8 40q-8 19 -22 33q-15 15 -34 23q-22 8 -40 8q-19 0 -41 -8q-21 -8 -33 -23q-15 -12 -23 -33q-8 -22 -8 -40v-245h-71v630h71v-246q47 36 105 36z" unicode="h"/>
<glyph glyph-name="i" horiz-adv-x="149" d="M109 1h-69v419h69v-419zM40 549h69v-69h-69v69z" unicode="i"/>
<glyph glyph-name="j" horiz-adv-x="407" d="M298 15v405h69v-405q0 -68 -48.5 -116.5t-116.5 -48.5q-59 0 -104.5 37t-57.5 93h71q11 -27 36 -44t55 -17q40 0 68 28t28 68zM298 480v69h69v-69h-69z" unicode="j"/>
<glyph glyph-name="k" horiz-adv-x="392" d="M111 284l203 137l38 -57l-168 -114l168 -249h-83l-142 211l-16 -11v-200h-71v629h71v-346z" unicode="k"/>
<glyph glyph-name="l" horiz-adv-x="150" d="M110 1h-70v630h70v-630z" unicode="l"/>
<glyph glyph-name="m" horiz-adv-x="711" d="M496 421q32 0 68 -14q32 -14 55 -38q18 -17 38 -55q14 -34 14 -68v-245h-71v245q0 18 -8 40q-11 23 -23 33q-14 16 -33 23q-22 8 -40 8q-20 0 -41 -8q-19 -8 -34 -23q-14 -14 -22 -33q-8 -18 -8 -40v-245h-71v245q0 18 -8 40q-11 23 -23 33q-14 16 -33 23q-22 8 -40 8 q-20 0 -41 -8q-19 -8 -34 -23q-14 -14 -22 -33q-8 -18 -8 -40v-245h-71v420h71v-36q47 36 105 36q41 0 79 -20q36 -21 61 -51q24 32 60 51q38 20 80 20z" unicode="m"/>
<glyph glyph-name="n" horiz-adv-x="430" d="M215 421q34 0 68 -14q32 -14 55 -38q24 -23 38 -55q14 -34 14 -68v-245h-70v245q0 20 -9 40q-8 19 -22 33q-14 15 -34 23q-22 8 -40 8q-19 0 -41 -8q-19 -8 -34 -23q-14 -14 -22 -33q-8 -22 -8 -40v-245h-70v420h70v-36q46 36 105 36z" unicode="n"/>
<glyph glyph-name="o" d="M250 69q58 0 99 41t41 99t-41 99t-99 41t-99 -41t-41 -99t41 -99t99 -41zM250 420q87 0 148.5 -61.5t61.5 -149.5q0 -87 -61.5 -148t-148.5 -61t-148.5 61t-61.5 148q0 88 61.5 149.5t148.5 61.5z" unicode="o"/>
<glyph glyph-name="p" horiz-adv-x="477" d="M227 69q27 0 55 11q25 11 44 30t30 44q11 28 11 55q0 26 -11 54q-10 25 -30 45q-19 19 -44 30q-28 11 -55 11q-26 0 -54 -11q-25 -10 -45 -30q-12 -12 -18 -23v-152q6 -11 18 -23q20 -20 45 -30q28 -11 54 -11zM227 420q40 0 82 -17q38 -16 67 -45q28 -28 45 -67 q16 -35 16 -82t-16 -82q-17 -37 -45 -66q-29 -29 -67 -45q-36 -16 -82 -16q-47 0 -82 16q-2 1 -15.5 8t-19.5 12v-216h-70v600h70v-36q14 10 35 19q40 17 82 17z" unicode="p"/>
<glyph glyph-name="q" horiz-adv-x="478" d="M250 69q27 0 55 11q25 11 44 30q12 12 19 23v152q-3 3 -9 11t-10 12q-19 19 -44 30q-28 11 -55 11q-26 0 -54 -11q-26 -10 -45 -30t-30 -45q-11 -28 -11 -54q0 -27 11 -55q11 -25 30 -44q19 -20 45 -30q28 -11 54 -11zM250 420q42 0 82 -17q20 -8 36 -19v36h70v-600h-70 v216q-19 -12 -36 -20q-35 -16 -82 -16q-46 0 -81 16q-39 17 -67 45q-28 29 -45 66q-17 40 -17 82t17 82q17 39 45 67t67 45q40 17 81 17z" unicode="q"/>
<glyph glyph-name="r" horiz-adv-x="333" d="M263 338q-24 11 -49 11q-42 0 -73 -30.5t-31 -73.5v-245h-70v420h70v-36q45 36 104 36q38 0 79 -19z" unicode="r"/>
<glyph glyph-name="s" horiz-adv-x="374" d="M192 246q60 -7 100 -45t40 -85q0 -2 -0.5 -6t-0.5 -6q-5 -44 -47 -73t-99 -29q-8 0 -26 2q-69 6 -114 56l51 47q22 -28 73 -36q5 -1 15 -1q31 0 52.5 12.5t23.5 31.5v5q0 20 -22.5 36.5t-56.5 21.5q-60 7 -99.5 44t-39.5 84q0 2 0.5 6t0.5 6q5 45 46.5 74.5t98.5 29.5 q9 0 25 -2q78 -12 115 -58l-52 -48q-21 30 -71 35q-14 2 -22 2q-30 0 -51 -12.5t-21 -32.5q0 -22 23.5 -38.5t57.5 -20.5z" unicode="s"/>
<glyph glyph-name="t" horiz-adv-x="318" d="M278 79v-69q-24 -9 -50 -9q-27 0 -55 11q-26 11 -44 30q-18 18 -30 44q-11 28 -11 55v209h-48v71h48v210h71v-210h64v-71h-64v-209q0 -27 20 -50q21 -21 49 -21q26 0 50 9z" unicode="t"/>
<glyph glyph-name="u" horiz-adv-x="431" d="M214 0q-72 0 -123 51.5t-51 123.5v245h71v-245q0 -44 30 -75t73 -31q45 0 75.5 30.5t30.5 75.5v245h71v-420h-71v35q-47 -35 -106 -35z" unicode="u"/>
<glyph glyph-name="v" horiz-adv-x="505" d="M116 421l136 -322l137 322h76l-177 -420h-71l-177 420h76z" unicode="v"/>
<glyph glyph-name="w" horiz-adv-x="703" d="M388 421l101 -310l101 310h73l-136 -420h-76l-99 307l-100 -307h-76l-136 420h73l101 -310l101 310h73z" unicode="w"/>
<glyph glyph-name="x" horiz-adv-x="494" d="M129 421l118 -154l119 154h88l-162 -211l162 -209h-88l-119 153l-118 -153h-89l162 209l-162 211h89z" unicode="x"/>
<glyph glyph-name="y" horiz-adv-x="430" d="M390 420v-395q0 -39 -13 -68q-13 -32 -37 -56q-28 -26 -56 -37q-34 -14 -69 -14q-33 0 -69 14q-29 12 -55 37q-24 24 -37 56l65 27q10 -22 22 -34q18 -16 33 -23q22 -8 41 -8q20 0 41 8q19 9 33 23t23 34q8 15 8 41v10q-24 -17 -47 -26q-27 -9 -58 -9q-33 0 -69 14 q-29 12 -55 37q-24 24 -37 56q-14 34 -14 68v245h70v-245q0 -19 8 -41q9 -20 23 -34q18 -16 33 -23q22 -8 41 -8q20 0 41 8q19 9 33 23t23 34q8 15 8 41v245h70z" unicode="y"/>
<glyph glyph-name="z" horiz-adv-x="430" d="M390 0h-350l223 349h-222v71h349l-222 -351h222v-69z" unicode="z"/>
<glyph glyph-name="braceleft" horiz-adv-x="234" d="M54 104v142q0 14 -10 24t-24 10v70q14 0 24 10t10 24v142q0 44 30 74t74 30h36v-70h-36q-14 0 -24 -10t-10 -24v-142q0 -40 -26 -69q26 -31 26 -69v-142q0 -14 10 -24t24 -10h36v-63v-7h-36q-44 0 -74 30.5t-30 73.5z" unicode="{"/>
<glyph glyph-name="bar" horiz-adv-x="150" d="M110 700v-771h-70v771h70z" unicode="|"/>
<glyph glyph-name="braceright" horiz-adv-x="234" d="M180 246v-142q0 -43 -30 -73.5t-73 -30.5h-37v7v63h37q14 0 23.5 10t9.5 24v142q0 38 26 69q-26 29 -26 69v142q0 14 -9.5 24t-23.5 10h-37v70h37q43 0 73 -30t30 -74v-142q0 -14 10 -24t24 -10v-70q-14 0 -24 -10t-10 -24z" unicode="}"/>
<glyph glyph-name="asciitilde" horiz-adv-x="453" d="M247 308q19 -13 40 -13q18 0 37.5 8.5t31.5 16.5l12 8l45 -49q-63 -51 -130 -51q-43 0 -76 25q-19 13 -40 13q-18 0 -38 -9t-29.5 -16t-13.5 -11l-46 49q61 54 130 54q42 0 77 -25z" unicode="~"/>
<glyph glyph-name="exclamdown" horiz-adv-x="149" d="M109 -81h-69v501h69v-501zM40 549h69v-69h-69v69z" unicode="¡"/>
<glyph glyph-name="cent" horiz-adv-x="461" d="M111 208q0 -44 24 -79t64 -50v259q-40 -15 -64 -50.5t-24 -79.5zM268 71q58 4 96 56l57 -41q-54 -78 -153 -86v-55h-69v61q-69 18 -114 74t-45 128q0 74 44.5 129t114.5 73v60h69v-53q100 -8 153 -87l-57 -41q-38 53 -96 57v-275z" unicode="¢"/>
<glyph glyph-name="sterling" horiz-adv-x="498" d="M103 348v70h53l16 87q4 27 18 50q19 33 52 52t72 19q59 0 101.5 -41.5t42.5 -100.5h-70q-1 30 -22.5 51t-51.5 21q-27 0 -47.5 -17.5t-25.5 -43.5v-7h-1l-12 -70h167v-70h-179l-50 -278h292v-70h-418v70h54l50 278h-41z" unicode="£"/>
<glyph glyph-name="currency" horiz-adv-x="352" d="M232 315q0 23 -17 39.5t-40 16.5t-39 -16t-16 -40q0 -25 16 -41t39 -16t40 17t17 40zM175 441q34 0 62 -16l25 26l50 -50l-26 -25q16 -28 16 -61t-16 -61l26 -26l-50 -49l-25 25q-29 -16 -62 -16t-61 16l-25 -25l-49 49l25 26q-15 27 -15 61t15 61l-25 25l49 50l25 -25 q27 15 61 15z" unicode="¤"/>
<glyph glyph-name="yen" horiz-adv-x="478" d="M40 372h144l-144 258h80l119 -214l119 214h80l-144 -258h144v-71h-164v-39h164v-70h-164v-191h-70v191h-164v70h164v39h-164v71z" unicode="¥"/>
<glyph glyph-name="brokenbar" horiz-adv-x="150" d="M110 700v-350h-70v350h70zM110 280v-351h-70v351h70z" unicode="¦"/>
<glyph glyph-name="section" horiz-adv-x="295" d="M69 388q-29 32 -29 74q0 44 31.5 75.5t76.5 31.5q44 0 75.5 -31.5t31.5 -75.5v-10h-68v10q0 16 -11.5 27.5t-27.5 11.5q-17 0 -28.5 -11.5t-11.5 -27.5q0 -17 11.5 -28t28.5 -11q44 0 75.5 -32t31.5 -76t-29 -73q29 -32 29 -74q0 -44 -31.5 -76t-75.5 -32q-45 0 -76.5 32 t-31.5 76v10h68v-10q0 -16 11.5 -27.5t28.5 -11.5q16 0 27.5 11.5t11.5 27.5q0 17 -11.5 28t-27.5 11q-45 0 -76.5 31.5t-31.5 76.5q0 44 29 73zM108 315q0 -17 11.5 -28t28.5 -11q16 0 27.5 11t11.5 28t-11.5 28t-27.5 11q-17 0 -28.5 -11t-11.5 -28z" unicode="§"/>
<glyph glyph-name="dieresis" horiz-adv-x="226" d="M138 630h48v-48h-48v48zM40 630h48v-48h-48v48z" unicode="¨"/>
<glyph glyph-name="copyright" horiz-adv-x="710" d="M86 315q0 -112 78.5 -190.5t190.5 -78.5t191 78.5t79 190.5t-79 191t-191 79t-190.5 -79t-78.5 -191zM157 315q0 82 58 140t140 58q45 0 80 -16l-18 -41q-26 13 -62 13q-64 0 -109 -45t-45 -109t45 -109t109 -45q39 0 71 17l20 -39q-41 -22 -91 -22q-82 0 -140 58 t-58 140zM40 315q0 130 92.5 222.5t222.5 92.5t222.5 -92.5t92.5 -222.5t-92.5 -222.5t-222.5 -92.5q-131 0 -223 92t-92 223z" unicode="©"/>
<glyph glyph-name="ordfeminine" horiz-adv-x="366" d="M123 567q-2 -1 -7 -8l-36 26q8 9 12 13q16 16 31 22q19 10 41 11h7q28 -2 41 -9l2 -1q19 -9 33 -23q8 -7 23 -34q9 -21 9 -43v-154h-44v11q-3 -1 -7 -3q-24 -9 -47 -10q-25 0 -44 5q-16 5 -35 17q-15 10 -25 26q-9 14 -9 35q0 12 7 29q7 15 21 27q15 12 34 19q24 8 43 8 q27 2 45 14q6 3 9 6q-2 5 -11 16q-9 9 -21 14q-10 5 -25 5h-1q-13 0 -25 -5t-21 -14zM40 306v29h266v-29h-266zM235 432v71q-5 -4 -16 -7q-19 -7 -43 -9q-26 0 -45 -12q-19 -11 -19 -27q0 -18 21 -29q18 -9 41 -9h6q16 0 31 6q12 4 24 16z" unicode="ª"/>
<glyph glyph-name="guillemotleft" horiz-adv-x="397" d="M226 229l-50 -50l-136 136l136 136l50 -49l-87 -87zM357 229l-50 -50l-136 136l136 136l50 -49l-87 -87z" unicode="«"/>
<glyph glyph-name="logicalnot" horiz-adv-x="395" d="M355 316v-199h-70v129h-245v70h315z" unicode="¬"/>
<glyph glyph-name="registered" horiz-adv-x="710" d="M40 315q0 130 92.5 222.5t222.5 92.5t222.5 -92.5t92.5 -222.5t-92.5 -222.5t-222.5 -92.5t-222.5 92.5t-92.5 222.5zM86 315q0 -112 79 -190.5t190 -78.5q81 0 149 44l-166 248h-44v-221h-45v221v175h163q36 0 62 -25.5t26 -61.5q0 -37 -26 -62.5t-62 -25.5h-20 l147 -220q86 80 86 197q0 112 -79 191t-191 79q-111 0 -190 -79t-79 -191zM412 469h-118v-87h118q18 0 30.5 13t12.5 31q0 17 -12.5 30t-30.5 13z" unicode="®"/>
<glyph glyph-name="macron" horiz-adv-x="478" d="M40 630h398v-71h-398v71z" unicode="¯"/>
<glyph glyph-name="degree" horiz-adv-x="366" d="M85 498q0 -37 25.5 -62.5t62.5 -25.5q36 0 62 25.5t26 62.5q0 36 -26 62t-62 26q-37 0 -62.5 -26t-25.5 -62zM40 498q0 55 39 94t94 39t94 -39t39 -94t-39 -94t-94 -39t-94 38.5t-39 94.5z" unicode="°"/>
<glyph glyph-name="plusminus" horiz-adv-x="394" d="M40 173h314v-70h-314v70zM40 405h122v122h70v-122h122v-70h-122v-123h-70v123h-122v70z" unicode="±"/>
<glyph glyph-name="twosuperior" horiz-adv-x="249" d="M40 344l107 193l1 2q5 8 5 18q0 16 -11 27t-27 11t-27 -11t-11 -27h-37q0 31 22 52.5t53 21.5q43 0 64 -37q10 -17 10 -37q0 -19 -9 -35v-1q-1 -1 -1 -2l-99 -177h109v-36h-149v36v2z" unicode="²"/>
<glyph glyph-name="threesuperior" horiz-adv-x="313" d="M145 341q15 0 28 6t23 16t15 23q6 12 6 28q0 14 -6 28q-4 12 -15 23q-12 10 -23 15q-13 6 -28 6v36q15 1 25.5 11.5t10.5 24.5q0 15 -10.5 25.5t-25.5 10.5q-28 0 -35 -27h-37q3 27 23.5 45.5t48.5 18.5q30 0 51 -21.5t21 -51.5q0 -29 -19 -49q11 -6 23 -18 q15 -15 24 -35q8 -22 8 -42q0 -21 -8 -43q-9 -19 -24 -34q-14 -14 -34 -23q-22 -8 -42 -8t-42 8q-16 7 -35 23q-14 14 -23 34l-5 15h38q8 -17 16 -23q6 -8 23 -16q12 -6 28 -6z" unicode="³"/>
<glyph glyph-name="acute" horiz-adv-x="222" d="M182 576l-97 -81l-45 53l97 82z" unicode="´"/>
<glyph glyph-name="mu" horiz-adv-x="431" d="M214 0q-19 0 -35 4q-22 6 -33 10q-23 13 -29 17l-6 3v-214h-71v600h71v-245q0 -7 2 -21q1 -4 3 -10.5t3 -9.5q3 -9 10 -18q2 -4 12 -16q13 -10 16 -12q7 -6 17 -10q7 -4 19 -6q11 -3 21 -3q20 0 42 8q18 7 34 23q15 15 23 34q7 17 7 41v245h71v-420h-71v35q-7 -5 -23 -15 q-21 -9 -26 -11q-13 -5 -27 -6q-15 -3 -30 -3z" unicode="µ"/>
<glyph glyph-name="paragraph" horiz-adv-x="478" d="M245 1v351h-65q-58 0 -99 40.5t-41 98.5t41 99t99 41h135v-1v-278v-351h-70zM368 352v279h70v-1v-278v-351h-70v351z" unicode="¶"/>
<glyph glyph-name="periodcentered" horiz-adv-x="149" d="M109 281h-69v69h69v-69z" unicode="·"/>
<glyph glyph-name="cedilla" horiz-adv-x="211" d="M81 0h40v-25q22 -6 36 -24.5t14 -42.5q0 -29 -20.5 -49.5t-49.5 -20.5q-41 0 -61 35l34 21q7 -16 27 -16q12 0 21 8.5t9 21.5t-9 22t-21 9t-20 -8v69z" unicode="¸"/>
<glyph glyph-name="onesuperior" horiz-adv-x="169" d="M109 306h-36v274l-8 -7l-25 25l32 33h37v-325z" unicode="¹"/>
<glyph glyph-name="ordmasculine" horiz-adv-x="366" d="M70 498q0 -43 30 -73t73 -30t73.5 30t30.5 73t-30.5 73t-73.5 30t-73 -30t-30 -73zM40 306v29h266v-29h-266zM40 498q0 55 39 94t94 39t94 -39t39 -94q0 -56 -39 -94.5t-94 -38.5t-94 39t-39 94z" unicode="º"/>
<glyph glyph-name="guillemotright" horiz-adv-x="396" d="M40 229l86 86l-86 87l49 49l136 -136l-136 -136zM170 229l87 86l-87 87l50 49l136 -136l-136 -136z" unicode="»"/>
<glyph glyph-name="onequarter" horiz-adv-x="742" d="M552 254h66v65zM702 254v-43h-42v-210h-42v210h-108h-17v44l95 94l30 30h42v-125h42zM660 631l-529 -630h-91l528 630h92zM119 253h-42v319l-8 -9l-29 30l37 38h42v-378z" unicode="¼"/>
<glyph glyph-name="onehalf" horiz-adv-x="723" d="M569 631h91l-529 -630h-91zM120 631v-378h-42v319l-8 -9l-30 30l38 38h42zM510 46l125 224l1 2q5 12 5 20q0 19 -13 32t-31 13q-19 0 -32 -13t-13 -32h-42q0 36 25.5 61.5t61.5 25.5q48 0 74 -43q12 -20 12 -44q0 -21 -10 -40q-1 0 -1 -1t-1 -2l-114 -206h126v-42h-173 v42v3z" unicode="½"/>
<glyph glyph-name="threequarters" horiz-adv-x="792" d="M619 631h91l-528 -630h-92zM668 319l-65 -65h65v65zM710 254h42v-43h-42v-210h-42v210h-107h-17v44l94 94l30 30h42v-125zM162 294q19 0 33 7q15 5 26 18q13 11 18 26q7 14 7 33q0 20 -7 33q-6 15 -18 27q-11 11 -26 18q-17 6 -33 6v43q17 0 29.5 12t12.5 29t-12.5 29.5 t-29.5 12.5q-33 0 -41 -32h-43q4 32 28 53.5t56 21.5q35 0 59.5 -25t24.5 -60q0 -34 -23 -57q14 -7 28 -21q17 -20 27 -40q10 -21 10 -50t-10 -49t-27 -40q-17 -17 -40 -26q-21 -10 -49 -10q-29 0 -49 10q-23 9 -40 26q-18 18 -27 40q-4 9 -6 17h44l1 -1q5 -15 18 -26 q11 -13 26 -18q13 -7 33 -7z" unicode="¾"/>
<glyph glyph-name="questiondown" horiz-adv-x="400" d="M207 420q25 0 46 -9t38 -26q14 -14 25 -38q9 -21 9 -46t-9 -46q-10 -22 -25 -38q-14 -14 -38 -25q-21 -10 -46 -10q-24 0 -38 -7q-18 -8 -31 -21t-21 -31q-7 -15 -7 -38t7 -37q8 -21 21 -31q13 -13 31 -21q19 -8 38 -8q18 0 37 8q21 8 31 21q13 10 21 31l64 -28 q-12 -30 -35 -53t-53 -36q-34 -13 -65 -13q-35 0 -65 13q-31 14 -53 36q-25 23 -36 53q-13 29 -13 65q0 38 13 65q11 31 36 53q22 22 53 36q27 13 65 13q10 0 19 4q12 7 15 11q7 5 11 15q3 9 3 19t-3 19q-4 9 -11 16t-15 10q-7 4 -19 4t-19 -4q-9 -3 -16 -10q-7 -8 -10 -16 l-65 27q11 24 25 38q17 17 38 26t46 9h1zM235 549v-69h-69v69h69z" unicode="¿"/>
<glyph glyph-name="Agrave" horiz-adv-x="625" d="M241 749l45 53l98 -81l-45 -54zM312 657l293 -657h-77l-107 240h-218l-106 -240h-77zM390 310l-78 175l-77 -175h155z" unicode="À"/>
<glyph glyph-name="Aacute" horiz-adv-x="624" d="M383 749l-97 -82l-45 54l97 81zM312 657l292 -657h-76l-107 240h-218l-107 -240h-76zM390 310l-78 175l-78 -175h156z" unicode="Á"/>
<glyph glyph-name="Acircumflex" horiz-adv-x="624" d="M312 802l97 -81l-45 -54l-52 44l-53 -44l-45 54zM312 657l292 -657h-76l-107 240h-218l-107 -240h-76zM390 310l-78 175l-78 -175h156z" unicode="Â"/>
<glyph glyph-name="Atilde" horiz-adv-x="625" d="M328 712q14 -10 30 -10q14 0 29 6.5t25 13.5l9 6l35 -38q-49 -39 -100 -39q-33 0 -59 19q-14 10 -30 10q-14 0 -29.5 -7t-23 -12.5t-10.5 -8.5l-35 38q46 41 100 41q33 0 59 -19zM313 657l292 -657h-77l-106 240h-218l-107 -240h-77zM390 310l-77 175l-78 -175h155z" unicode="Ã"/>
<glyph glyph-name="Adieresis" horiz-adv-x="624" d="M337 726h48v-49h-48v49zM239 726h48v-49h-48v49zM312 657l292 -657h-76l-107 240h-218l-107 -240h-76zM390 310l-78 175l-78 -175h156z" unicode="Ä"/>
<glyph glyph-name="Aring" horiz-adv-x="624" d="M312 818q29 0 49.5 -20.5t20.5 -49.5q0 -30 -20.5 -50.5t-49.5 -20.5t-49.5 20.5t-20.5 50.5q0 29 20.5 49.5t49.5 20.5zM342 748q0 12 -9 21t-21 9t-21 -8.5t-9 -21.5q0 -14 9 -22.5t21 -8.5t21 9t9 22zM312 657l292 -657h-76l-107 240h-218l-107 -240h-76zM390 310 l-78 175l-78 -175h156z" unicode="Å"/>
<glyph glyph-name="AE" horiz-adv-x="738" d="M370 422h122v-70h-122v-281h328v-70h-398v240h-97l-107 -240h-76l280 630h398v-71h-328v-138zM300 311v148l-66 -148h66z" unicode="Æ"/>
<glyph glyph-name="Ccedilla" horiz-adv-x="540" d="M40 315q0 130 92.5 222.5t222.5 92.5q65 0 127 -27l-28 -64q-50 21 -99 21q-101 0 -173 -72t-72 -173q0 -102 72 -173.5t173 -71.5q57 0 113 27l32 -62q-56 -30 -124 -35v-24q22 -7 36 -25.5t14 -42.5q0 -29 -21 -49.5t-50 -20.5q-41 0 -60 36l34 20q7 -16 26 -16 q13 0 22 9t9 21q0 13 -9 22t-22 9q-11 0 -19 -8v69q-124 8 -210 99t-86 216z" unicode="Ç"/>
<glyph glyph-name="Egrave" horiz-adv-x="477" d="M167 722l45 54l98 -82l-45 -54zM110 422h122v-71h-122v-280h327v-71h-397v630h397v-70h-327v-138z" unicode="È"/>
<glyph glyph-name="Eacute" horiz-adv-x="478" d="M310 722l-97 -82l-45 54l97 82zM110 422h122v-71h-122v-280h328v-71h-398v630h398v-70h-328v-138z" unicode="É"/>
<glyph glyph-name="Ecircumflex" horiz-adv-x="477" d="M239 776l97 -82l-45 -54l-52 44l-53 -44l-45 54zM110 422h122v-71h-122v-280h327v-71h-397v630h397v-70h-327v-138z" unicode="Ê"/>
<glyph glyph-name="Edieresis" horiz-adv-x="477" d="M263 699h49v-48h-49v48zM165 699h49v-48h-49v48zM110 422h122v-71h-122v-280h327v-71h-397v630h397v-70h-327v-138z" unicode="Ë"/>
<glyph glyph-name="Igrave" horiz-adv-x="223" d="M40 722l45 54l98 -82l-45 -53zM42 631h140v-70h-35v-490h35v-70h-140v70h35v490h-35v70z" unicode="Ì"/>
<glyph glyph-name="Iacute" horiz-adv-x="222" d="M182 722l-97 -81l-45 53l97 82zM41 631h140v-70h-35v-490h35v-70h-140v70h35v490h-35v70z" unicode="Í"/>
<glyph glyph-name="Icircumflex" horiz-adv-x="275" d="M137 776l98 -82l-45 -53l-53 44l-52 -44l-45 53zM67 631h140v-70h-35v-490h35v-70h-140v70h35v490h-35v70z" unicode="Î"/>
<glyph glyph-name="Idieresis" horiz-adv-x="227" d="M138 699h49v-48h-49v48zM40 699h49v-48h-49v48zM43 631h140v-70h-35v-490h35v-70h-140v70h35v490h-35v70z" unicode="Ï"/>
<glyph glyph-name="Eth" horiz-adv-x="615" d="M260 559h-78v-208h71v-71h-71v-208h78q102 0 173 71t71 173q0 101 -71 172t-173 71zM111 351v279h149q130 0 222.5 -92t92.5 -222t-92.5 -222.5t-222.5 -92.5h-149v279h-71v71h71z" unicode="Ð"/>
<glyph glyph-name="Ntilde" horiz-adv-x="595" d="M313 712q14 -10 30 -10q14 0 29 6.5t24 13.5l10 6l35 -38q-49 -39 -100 -39q-33 0 -59 19q-14 10 -30 10q-14 0 -29.5 -7t-23 -12.5t-10.5 -8.5l-35 38q46 41 100 41q33 0 59 -19zM485 630h70v-630h-85l-360 527v-527h-70v630h70h15l360 -527v527z" unicode="Ñ"/>
<glyph glyph-name="Ograve" horiz-adv-x="710" d="M110 315q0 -101 72 -173t173 -72t173 72t72 173t-72 173t-173 72t-173 -72t-72 -173zM381 640l-97 82l45 53l97 -81zM40 315q0 130 92.5 222.5t222.5 92.5t222.5 -92.5t92.5 -222.5t-92.5 -222.5t-222.5 -92.5q-131 0 -223 92t-92 223z" unicode="Ò"/>
<glyph glyph-name="Oacute" horiz-adv-x="710" d="M110 315q0 -101 72 -173t173 -72t173 72t72 173t-72 173t-173 72t-173 -72t-72 -173zM426 722l-97 -82l-45 54l97 81zM40 315q0 130 92.5 222.5t222.5 92.5t222.5 -92.5t92.5 -222.5t-92.5 -222.5t-222.5 -92.5q-131 0 -223 92t-92 223z" unicode="Ó"/>
<glyph glyph-name="Ocircumflex" horiz-adv-x="710" d="M110 315q0 -101 72 -173t173 -72t173 72t72 173t-72 173t-173 72t-173 -72t-72 -173zM257 694l98 81l97 -81l-45 -54l-52 44l-53 -44zM40 315q0 130 92.5 222.5t222.5 92.5t222.5 -92.5t92.5 -222.5t-92.5 -222.5t-222.5 -92.5q-131 0 -223 92t-92 223z" unicode="Ô"/>
<glyph glyph-name="Otilde" horiz-adv-x="710" d="M110 315q0 -101 72 -173t173 -72t173 72t72 173t-72 173t-173 72t-173 -72t-72 -173zM370 712q14 -10 30 -10q14 0 29 6.5t25 13.5l9 6l35 -38q-49 -39 -100 -39q-33 0 -59 19q-14 10 -30 10q-14 0 -29.5 -7t-23 -12.5t-10.5 -8.5l-35 38q46 41 100 41q33 0 59 -19z M40 315q0 130 92.5 222.5t222.5 92.5t222.5 -92.5t92.5 -222.5t-92.5 -222.5t-222.5 -92.5q-131 0 -223 92t-92 223z" unicode="Õ"/>
<glyph glyph-name="Odieresis" horiz-adv-x="710" d="M110 315q0 -101 72 -173t173 -72t173 72t72 173t-72 173t-173 72t-173 -72t-72 -173zM380 650v49h48v-49h-48zM282 650v49h48v-49h-48zM40 315q0 130 92.5 222.5t222.5 92.5t222.5 -92.5t92.5 -222.5t-92.5 -222.5t-222.5 -92.5q-131 0 -223 92t-92 223z" unicode="Ö"/>
<glyph glyph-name="multiply" horiz-adv-x="352" d="M40 229l86 86l-86 87l49 49l87 -86l86 86l50 -49l-87 -87l87 -86l-50 -50l-86 87l-87 -87z" unicode="×"/>
<glyph glyph-name="Oslash" horiz-adv-x="710" d="M40 315q0 130 92.5 222.5t222.5 92.5q108 0 196 -69l46 46l50 -50l-46 -45q69 -88 69 -197q0 -130 -92.5 -222.5t-222.5 -92.5q-109 0 -197 69l-46 -46l-49 49l46 46q-69 86 -69 197zM110 315q0 -84 48 -147l343 343q-65 49 -146 49q-102 0 -173.5 -72t-71.5 -173z M551 462l-343 -343q65 -49 147 -49q101 0 173 72t72 173q0 82 -49 147z" unicode="Ø"/>
<glyph glyph-name="Ugrave" horiz-adv-x="543" d="M298 640l-98 82l45 54l98 -82zM40 234v396h71v-396q0 -68 47 -115t114 -47q66 0 113 47t47 115v396h71v-396q0 -96 -67.5 -164.5t-163.5 -68.5t-164 68.5t-68 164.5z" unicode="Ù"/>
<glyph glyph-name="Uacute" horiz-adv-x="543" d="M342 722l-97 -82l-45 54l97 82zM40 630h71v-396q0 -68 47 -115t113 -47q67 0 114 47t47 115v396h71v-396q0 -96 -68.5 -164.5t-163.5 -68.5q-96 0 -163.5 68.5t-67.5 164.5v396z" unicode="Ú"/>
<glyph glyph-name="Ucircumflex" horiz-adv-x="543" d="M174 694l97 82l98 -82l-45 -54l-53 44l-52 -44zM40 234v396h71v-396q0 -68 47 -115t113 -47q67 0 114 47t47 115v396h71v-396q0 -96 -68.5 -164.5t-163.5 -68.5q-96 0 -163.5 68.5t-67.5 164.5z" unicode="Û"/>
<glyph glyph-name="Udieresis" horiz-adv-x="543" d="M296 651v48h48v-48h-48zM198 651v48h48v-48h-48zM40 234v396h71v-396q0 -68 47 -115t113 -47q67 0 114 47t47 115v396h71v-396q0 -96 -68.5 -164.5t-163.5 -68.5q-96 0 -163.5 68.5t-67.5 164.5z" unicode="Ü"/>
<glyph glyph-name="Yacute" horiz-adv-x="478" d="M310 722l-97 -82l-45 54l97 82zM120 630l119 -214l119 214h80l-164 -295v-334h-70v334l-164 295h80z" unicode="Ý"/>
<glyph glyph-name="Thorn" horiz-adv-x="472" d="M110 0v-180h-70v810h70v-208h111q88 0 149.5 -62t61.5 -149q0 -88 -61.5 -149.5t-149.5 -61.5h-111zM111 351v-280h110q58 0 99 41t41 99t-41 99t-99 41h-110z" unicode="Þ"/>
<glyph glyph-name="germandbls" horiz-adv-x="472" d="M221 351h-39v71h45q28 0 48 20t20 49q0 28 -20 48t-48 20h-116v-739h-71v809v1h187q58 0 98.5 -40.5t40.5 -98.5v-1q0 -55 -39 -96q49 -28 77 -76.5t28 -106.5q0 -88 -62 -149.5t-149 -61.5h-39v71h39q58 0 99 41t41 99t-41 99t-99 41z" unicode="ß"/>
<glyph glyph-name="agrave" horiz-adv-x="417" d="M235 434l-97 82l45 53l97 -82zM128 322q-2 -2 -10 -12l-58 41q11 15 19 21q21 22 50 35q30 15 65 17h1h1h1h1h1h1h2h1h1h1h1q34 -1 64 -14h1v-1h1h1l1 -1h1h1v-1q25 -12 50 -35q25 -26 37 -55q14 -27 14 -68v-245h-70v17l-4 -1q-4 -2 -7 -4q-36 -14 -76 -15h-9 q-29 0 -59 8q-33 9 -57 27q-24 17 -39 41t-16 50q0 27 12 52q15 28 34 43q20 19 54 31q35 12 68 13q43 1 73 21q3 2 14 10q-5 11 -19 25q-12 15 -33 23q-22 8 -40 8h-1q-18 0 -40 -8q-19 -8 -34 -23zM307 107v113q-16 -8 -25 -11q-33 -12 -68 -13q-43 -1 -72 -20 q-31 -19 -31 -45q0 -29 34 -45q26 -13 60 -13h14q26 0 50 9q22 7 38 25z" unicode="à"/>
<glyph glyph-name="aacute" horiz-adv-x="418" d="M280 516l-97 -82l-45 53l97 82zM129 318q-5 -3 -11 -12l-57 41q5 8 18 21q21 22 50 35q30 15 65 17h1h1h1h1h1h1h1h2h1h1h1h1q36 -2 64 -14h1v-1h1h1v-1h1h1v-1q28 -13 50 -35q18 -17 38 -55q14 -34 14 -68v-245h-70v17q-8 -3 -12 -5q-34 -14 -75 -15h-9l-60 8 q-33 9 -57 27q-24 17 -39 41q-15 25 -15 50v5q0 23 11 47t35 43q20 19 54 31q35 12 68 13q42 2 72 21q3 2 14 10q-9 16 -18 25q-15 15 -34 23q-22 8 -40 8q-19 0 -41 -8q-21 -8 -33 -23zM308 102v114q-7 -4 -26 -11q-33 -12 -68 -13q-41 -1 -72 -20q-31 -18 -31 -47 q2 -27 35 -43q26 -13 60 -13h13q27 0 50 9q22 7 38 25z" unicode="á"/>
<glyph glyph-name="acircumflex" horiz-adv-x="417" d="M111 487l98 82l97 -82l-45 -53l-52 44l-53 -44zM128 317q-2 -2 -10 -12l-58 41q11 15 19 21q20 21 49 35q31 15 66 17h1h1h1h1h1h1h2h1h1h1h1q34 -1 64 -14h1v-1h1h1l1 -1h1l1 -1q25 -12 50 -35q25 -26 37 -55q14 -34 14 -68v-245h-70v17q-7 -2 -11 -5q-36 -14 -76 -15 h-9l-60 8q-32 9 -56 27q-26 17 -39 41q-15 24 -16 50q0 29 12 52q15 28 34 43q20 19 54 31q35 12 68 13q44 1 72 21q2 1 14 10q-9 16 -18 25q-12 15 -33 23q-22 8 -40 8h-1q-18 0 -40 -8q-20 -8 -34 -23zM307 102v113q-17 -9 -26 -11q-33 -12 -68 -13q-41 -1 -72 -20 q-30 -18 -30 -44q0 -30 34 -46q26 -13 60 -13h13q27 0 51 9q22 7 38 25z" unicode="â"/>
<glyph glyph-name="atilde" horiz-adv-x="417" d="M224 505q14 -10 30 -10q14 0 29 6.5t25 12.5l9 7l35 -38q-49 -39 -100 -39q-33 0 -59 19q-14 10 -30 10q-14 0 -29.5 -7t-23 -12.5t-10.5 -8.5l-35 38q46 41 100 41q33 0 59 -19zM128 318q-2 -2 -6 -6.5t-5 -5.5l-57 41q9 12 18 21q21 22 50 35q31 15 65 17h1h1h1h1h1h1 h1h2h1h1h1h1q34 -1 64 -14h1v-1h1h1v-1h1h1l1 -1q29 -14 49 -35q24 -23 38 -55q14 -34 14 -68v-245h-70v17q-7 -2 -11 -5q-36 -14 -76 -15h-9l-60 8q-31 9 -57 27q-24 17 -38 41q-15 24 -16 50q0 28 11 52q15 27 35 43q20 19 54 31q35 12 68 13q42 2 72 21q2 1 14 10 q-9 16 -18 25q-14 15 -34 23q-21 8 -40 8t-41 -8q-21 -8 -33 -23zM307 103v113q-7 -4 -26 -11q-33 -12 -68 -13q-41 -1 -72 -20q-30 -18 -30 -44q0 -30 34 -46q26 -13 60 -13h13q27 0 51 9q19 6 38 25z" unicode="ã"/>
<glyph glyph-name="adieresis" horiz-adv-x="418" d="M234 444v48h48v-48h-48zM136 444v48h48v-48h-48zM129 318q-5 -3 -11 -12l-57 41q7 12 18 21q21 22 50 35q30 15 65 17h1h1h1h1h1h1h1h2h1h1h1q36 -2 65 -14l1 -1h1h1v-1h1h1v-1q28 -13 50 -35q18 -17 38 -55q14 -34 14 -68v-245h-70v17q-8 -3 -12 -5q-36 -14 -75 -15h-9 q-30 0 -60 8q-33 9 -57 27q-24 17 -39 41q-15 22 -15 50v5q0 23 11 47t35 43q20 19 54 31q35 12 68 13q42 2 72 21q3 2 14 10q-9 16 -18 25q-15 15 -34 23q-22 8 -40 8h-1q-18 0 -40 -8q-21 -8 -33 -23zM307 103l1 -1v114q-7 -4 -26 -11q-33 -12 -68 -13q-43 -1 -72 -20 q-31 -19 -31 -45q0 -29 34 -45q26 -13 60 -13h14q27 0 50 9q22 7 38 25z" unicode="ä"/>
<glyph glyph-name="aring" horiz-adv-x="417" d="M216 585q29 0 49.5 -20.5t20.5 -49.5q0 -30 -20.5 -50.5t-49.5 -20.5t-49.5 20.5t-20.5 50.5q0 29 20.5 49.5t49.5 20.5zM246 515q0 12 -8.5 21t-21.5 9q-12 0 -21 -8.5t-9 -21.5q0 -14 9 -22.5t21 -8.5q13 0 21.5 9t8.5 22zM128 318q-2 -2 -6 -6.5t-5 -5.5l-57 41 q9 12 18 21q21 22 50 35q31 15 65 17h1h1h1h1h1h1h1h2h1h1h1h1q34 -1 64 -14h1v-1h1h1v-1h1h1l1 -1q29 -14 49 -35q24 -23 38 -55q14 -34 14 -68v-245h-70v17q-7 -2 -11 -5q-36 -14 -76 -15h-9l-60 8q-31 9 -57 27q-24 17 -38 41q-15 24 -16 50q0 28 11 52q15 27 35 43 q20 19 54 31q35 12 68 13q42 2 72 21q2 1 14 10q-9 16 -18 25q-14 15 -34 23q-21 8 -40 8t-41 -8q-21 -8 -33 -23zM307 103v113q-7 -4 -26 -11q-33 -12 -68 -13q-41 -1 -72 -20q-30 -18 -30 -44q0 -30 34 -46q26 -13 60 -13h13q27 0 51 9q19 6 38 25z" unicode="å"/>
<glyph glyph-name="ae" horiz-adv-x="763" d="M128 318q-2 -2 -5.5 -6t-5.5 -6l-57 41q3 4 8.5 11t9.5 10q21 22 50 35q31 15 65 17h1h1h1h1h1h1h1h2h1h1h1h1q34 -1 64 -14l1 -1h1h1v-1h1h1v-1h1q29 -14 49 -35q12 -11 23 -28q5 7 16 18q29 29 67 45q40 17 82 17t82 -17q37 -17 66 -45q28 -28 45 -67q17 -40 17 -82 q0 -11 -1 -18q0 -2 -1 -8t-1 -8h-343q6 -24 18 -42q13 -19 31 -34q21 -16 40 -22q21 -8 47 -8q40 0 71 19q32 19 51 52l59 -35q-26 -48 -75 -77q-46 -28 -106 -28q-47 0 -82 16q-30 14 -54 33v-49h-70v17q-2 -2 -5.5 -3t-5.5 -2q-36 -14 -76 -15h-9l-60 8q-31 9 -57 27 q-24 17 -38 41q-15 24 -16 50q0 28 11 52q13 24 35 43q20 19 54 31q35 12 68 13q42 2 72 21q2 1 14 10q-9 16 -18 25q-7 8 -34 23q-21 8 -40 8t-41 -8q-23 -11 -33 -23zM307 102v65q-4 15 -4 42v5q-16 -8 -22 -10q-36 -12 -68 -12q-42 -2 -72 -20t-30 -44q0 -30 34 -46 q28 -14 58 -14q10 0 15 1q27 0 51 9q15 5 38 24zM513 349q-21 0 -47 -8q-26 -10 -40 -22q-19 -15 -31 -33q-12 -20 -18 -41h272q-12 45 -50 74q-37 30 -86 30z" unicode="æ"/>
<glyph glyph-name="ccedilla" horiz-adv-x="461" d="M249 -160q-41 0 -61 35l35 21q7 -16 26 -16q13 0 21.5 8.5t8.5 21.5t-8.5 21.5t-21.5 8.5t-20 -7v68q-35 3 -61 16q-38 17 -67 44q-29 29 -45 66q-16 36 -16 82q0 47 16 83q17 39 45 67q29 29 67 45q35 16 81 16q55 0 98 -24q46 -25 74 -64l-58 -41q-20 26 -49 42 q-28 16 -65 16q-32 0 -55 -11q-25 -11 -44 -30q-19 -18 -30 -44q-11 -28 -11 -55q0 -26 11 -54q10 -25 30 -45q20 -19 44 -30q28 -11 55 -11q36 0 65 17q32 19 49 43l58 -41q-28 -39 -74 -64q-35 -18 -78 -23v-24q22 -6 36 -24.5t14 -42.5q0 -29 -20.5 -49.5t-49.5 -20.5z " unicode="ç"/>
<glyph glyph-name="egrave" d="M277 430l-98 82l45 53l98 -82zM250 349q-21 0 -47 -8q-23 -9 -40 -22q-18 -13 -30 -33q-14 -23 -19 -41h272q-12 46 -49 74q-37 30 -87 30zM457 175h-343q5 -20 19 -42q10 -17 30 -34q17 -13 40 -22q26 -8 47 -8q41 0 72 19q30 17 50 52l59 -35q-29 -51 -74 -77 q-46 -28 -107 -28q-46 0 -82 16q-38 16 -66 45t-45 66q-17 40 -17 82t17 82q17 39 45 67t66 45q42 17 82 17q42 0 82 -17q39 -17 67 -45t45 -67q16 -35 16 -82q0 -11 -1 -18q0 -2 -2 -16z" unicode="è"/>
<glyph glyph-name="eacute" d="M321 512l-98 -82l-45 53l98 82zM250 349q-23 0 -47 -8q-19 -6 -40 -22t-31 -33q-12 -19 -18 -41h272q-12 45 -50 74q-38 30 -86 30zM457 175h-343q6 -23 18 -42q8 -13 31 -34q21 -16 40 -22q24 -8 47 -8q40 0 71 19q32 20 51 52l59 -35q-26 -48 -75 -77q-46 -28 -106 -28 q-47 0 -82 16q-39 17 -67 45q-29 29 -45 66q-16 35 -16 82t16 82q17 39 45 67t67 45q40 17 82 17q40 0 82 -17q38 -17 66 -45t45 -67q17 -40 17 -82q0 -3 -0.5 -9t-0.5 -9q-2 -14 -2 -16z" unicode="é"/>
<glyph glyph-name="ecircumflex" d="M152 483l98 82l97 -82l-45 -53l-52 44l-53 -44zM250 349q-23 0 -47 -8q-19 -6 -40 -22q-19 -15 -31 -33q-12 -19 -18 -41h272q-12 45 -50 74q-38 30 -86 30zM457 175h-343q6 -23 18 -42q13 -19 31 -34q21 -16 40 -22q24 -8 47 -8q40 0 71 19q32 20 51 52l59 -35 q-26 -48 -75 -77q-46 -28 -106 -28q-47 0 -82 16q-39 17 -67 45q-29 29 -45 66q-16 35 -16 82t16 82q17 39 45 67t67 45q40 17 82 17q40 0 82 -17q38 -17 66 -45t45 -67q17 -40 17 -82q0 -3 -0.5 -9t-0.5 -9q-2 -14 -2 -16z" unicode="ê"/>
<glyph glyph-name="edieresis" d="M275 440v48h48v-48h-48zM177 440v48h48v-48h-48zM250 349q-23 0 -47 -8q-19 -6 -40 -22q-19 -15 -31 -33q-12 -19 -18 -41h272q-12 45 -50 74q-38 30 -86 30zM457 175h-343q6 -23 18 -42q13 -19 31 -34q21 -16 40 -22q24 -8 47 -8q40 0 71 19q32 20 51 52l59 -35 q-26 -48 -75 -77q-46 -28 -106 -28q-47 0 -82 16q-39 17 -67 45q-29 29 -45 66q-16 35 -16 82t16 82q17 39 45 67t67 45q40 17 82 17q40 0 82 -17q38 -17 66 -45t45 -67q17 -40 17 -82q0 -3 -0.5 -9t-0.5 -9q-2 -14 -2 -16z" unicode="ë"/>
<glyph glyph-name="igrave" horiz-adv-x="222" d="M40 511l45 54l97 -82l-45 -53zM146 0h-69v420h69v-420z" unicode="ì"/>
<glyph glyph-name="iacute" horiz-adv-x="222" d="M182 511l-97 -81l-45 53l97 82zM145 0h-69v420h69v-420z" unicode="í"/>
<glyph glyph-name="icircumflex" horiz-adv-x="275" d="M137 565l98 -82l-45 -53l-53 44l-52 -44l-45 53zM172 0h-69v420h69v-420z" unicode="î"/>
<glyph glyph-name="idieresis" horiz-adv-x="226" d="M138 488h48v-48h-48v48zM40 488h48v-48h-48v48zM147 0h-69v420h69v-420z" unicode="ï"/>
<glyph glyph-name="eth" d="M250 69q26 0 54 11q26 12 45 30q19 20 30 45q11 28 11 54q0 27 -11 55q-11 26 -30 44q-19 20 -45 30q-24 11 -54 11q-32 0 -55 -11q-25 -11 -44 -30q-19 -18 -30 -44q-11 -28 -11 -55q0 -26 11 -54q11 -25 30 -45q20 -19 44 -30q28 -11 55 -11zM250 420q46 0 81 -16 q34 -14 59 -37v42v46q0 21 -9 41q-2 8 -5 11l-52 -44l-45 53l45 38q-15 7 -39 7q-23 0 -41 -8l-28 63q30 14 69 14t69 -14q12 -4 27 -14l35 28l44 -52l-29 -25q9 -13 15 -30q14 -34 14 -68v-246q0 -40 -17 -82q-17 -37 -45 -66q-28 -27 -67 -44q-40 -17 -81 -17 q-42 0 -82 17q-38 17 -67 44q-29 29 -45 66q-16 36 -16 82q0 47 16 83q17 39 45 67q29 29 67 45q35 16 82 16z" unicode="ð"/>
<glyph glyph-name="ntilde" horiz-adv-x="430" d="M215 420q41 0 68 -14q34 -15 55 -37q26 -26 38 -56q14 -34 14 -68v-245h-70v245q0 22 -9 40q-5 13 -22 34q-13 15 -34 22q-18 8 -40 8q-23 0 -41 -8q-19 -7 -34 -22q-17 -21 -22 -34q-8 -21 -8 -40v-245h-70v420h70v-36q46 36 105 36zM230 492q14 -10 30 -10q14 0 29 6.5 t25 13.5l9 6l35 -38q-49 -39 -100 -39q-33 0 -59 19q-14 10 -30 10q-14 0 -29.5 -7t-23 -12.5t-10.5 -8.5l-35 38q46 41 100 41q33 0 59 -19z" unicode="ñ"/>
<glyph glyph-name="ograve" d="M277 430l-98 82l45 53l98 -82zM250 69q27 0 55 11q26 11 44 30q19 19 30 44q11 23 11 55q0 30 -11 54q-11 25 -30 45q-18 19 -44 30q-28 11 -55 11q-26 0 -54 -11q-26 -10 -45 -30q-18 -20 -30 -45q-11 -28 -11 -54q0 -27 11 -55q11 -24 30 -44t45 -30q28 -11 54 -11z M250 420q40 0 82 -17q39 -17 67 -45t45 -67q16 -35 16 -82t-16 -82q-16 -37 -45 -66q-28 -28 -67 -45q-36 -16 -82 -16t-82 16q-38 16 -66 45t-45 66q-17 40 -17 82t17 82q17 39 45 67t66 45q42 17 82 17z" unicode="ò"/>
<glyph glyph-name="oacute" d="M322 512l-98 -82l-45 53l98 82zM250 69q27 0 55 11q26 11 44 30q19 19 30 44q11 23 11 55q0 30 -11 54q-11 25 -30 45q-18 19 -44 30q-28 11 -55 11q-26 0 -54 -11q-26 -10 -45 -30q-18 -20 -30 -45q-11 -28 -11 -54q0 -27 11 -55q11 -24 30 -44t45 -30q28 -11 54 -11z M250 420q40 0 82 -17q39 -17 67 -45t45 -67q16 -35 16 -82t-16 -82q-16 -37 -45 -66q-28 -28 -67 -45q-36 -16 -82 -16t-82 16q-38 16 -66 45t-45 66q-17 40 -17 82t17 82q17 39 45 67t66 45q42 17 82 17z" unicode="ó"/>
<glyph glyph-name="ocircumflex" d="M153 483l97 82l98 -82l-45 -53l-53 44l-52 -44zM250 69q27 0 55 11q26 11 44 30q19 19 30 44q11 23 11 55q0 30 -11 54q-11 25 -30 45q-18 19 -44 30q-28 11 -55 11q-26 0 -54 -11q-26 -10 -45 -30q-18 -20 -30 -45q-11 -28 -11 -54q0 -27 11 -55q11 -24 30 -44t45 -30 q28 -11 54 -11zM250 420q40 0 82 -17q39 -17 67 -45t45 -67q16 -35 16 -82t-16 -82q-16 -37 -45 -66q-28 -28 -67 -45q-36 -16 -82 -16t-82 16q-38 16 -66 45t-45 66q-17 40 -17 82t17 82q17 39 45 67t66 45q42 17 82 17z" unicode="ô"/>
<glyph glyph-name="otilde" d="M265 501q14 -10 30 -10q14 0 29 6.5t24 12.5l10 7l35 -38q-49 -39 -100 -39q-33 0 -59 19q-14 10 -30 10q-14 0 -29.5 -7t-23 -12.5t-10.5 -8.5l-35 38q46 41 100 41q33 0 59 -19zM250 69q26 0 54 11q26 10 45 30q19 19 30 44q11 28 11 55q0 26 -11 54q-11 25 -30 45 t-45 30q-28 11 -54 11q-27 0 -55 -11q-25 -11 -44 -30q-19 -20 -30 -45q-11 -28 -11 -54q0 -27 11 -55q11 -25 30 -44t44 -30q28 -11 55 -11zM250 420q41 0 81 -17q39 -17 67 -45t45 -67q17 -40 17 -82t-17 -82q-17 -37 -45 -66q-28 -28 -67 -45q-35 -16 -81 -16 q-47 0 -82 16q-38 16 -67 45t-45 66q-16 35 -16 82t16 82q17 39 45 67q29 29 67 45q40 17 82 17z" unicode="õ"/>
<glyph glyph-name="odieresis" d="M275 440v48h49v-48h-49zM177 440v48h49v-48h-49zM250 69q27 0 55 11q26 11 44 30q19 19 30 44q11 23 11 55q0 30 -11 54q-11 25 -30 45q-18 19 -44 30q-28 11 -55 11q-26 0 -54 -11q-26 -10 -45 -30q-18 -20 -30 -45q-11 -28 -11 -54q0 -27 11 -55q11 -24 30 -44t45 -30 q28 -11 54 -11zM250 420q40 0 82 -17q39 -17 67 -45t45 -67q16 -35 16 -82t-16 -82q-16 -37 -45 -66q-28 -28 -67 -45q-36 -16 -82 -16t-82 16q-38 16 -66 45t-45 66q-17 40 -17 82t17 82q17 39 45 67t66 45q42 17 82 17z" unicode="ö"/>
<glyph glyph-name="divide" horiz-adv-x="394" d="M40 350h314v-70h-314v70zM162 472h70v-70h-70v70zM162 228h70v-70h-70v70z" unicode="÷"/>
<glyph glyph-name="oslash" d="M250 69q26 0 54 11q26 10 45 30q18 20 30 45q11 28 11 54q0 27 -11 55q-6 10 -9 17l-192 -192q12 -7 17 -9q28 -11 55 -11zM129 138l191 192q-7 4 -16 8q-28 11 -54 11q-27 0 -55 -11q-26 -11 -44 -30q-19 -19 -30 -44q-11 -23 -11 -55q0 -30 11 -54q2 -4 4 -8.5t4 -8.5z M250 420q45 0 81 -16q24 -11 41 -23l31 32l50 -50l-32 -31q13 -17 22 -40q17 -42 17 -83q0 -42 -17 -82q-17 -37 -45 -66q-28 -28 -67 -44q-40 -17 -81 -17q-42 0 -82 17q-28 13 -40 22l-31 -32l-50 50l31 31q-13 19 -22 39q-16 35 -16 82t16 83q16 38 45 67q28 28 67 45 q35 16 82 16z" unicode="ø"/>
<glyph glyph-name="ugrave" horiz-adv-x="431" d="M242 430l-98 82l45 53l98 -82zM214 0q-18 0 -35 3q-22 6 -33 11q-23 10 -30 16q-18 14 -25 21q-9 9 -21 26q-10 11 -16 30q-5 11 -11 33q-3 16 -3 35v122v123h36h35v-123v-122q0 -7 2 -21q1 -10 6 -21q1 -2 10 -18q5 -7 12 -15q5 -5 15 -13q4 -2 9.5 -5.5t8.5 -4.5 q11 -5 19 -6q14 -2 21 -2q23 0 41 8q19 7 35 22q15 16 22 35q8 18 8 41v122v123h36h35v-210v-210h-35h-36v17v18q-12 -9 -24 -15q-9 -5 -25 -11q-8 -3 -28 -7q-18 -2 -29 -2z" unicode="ù"/>
<glyph glyph-name="uacute" horiz-adv-x="431" d="M287 512l-98 -82l-45 53l98 82zM214 0q-18 0 -35 3q-22 6 -33 11q-23 10 -30 16q-18 14 -25 21q-9 9 -21 26q-10 11 -16 30q-5 11 -11 33q-3 16 -3 35v122v123h36h35v-123v-122q0 -7 2 -21q1 -10 6 -21q1 -2 10 -18q5 -7 12 -15q5 -5 15 -13q4 -2 9.5 -5.5t8.5 -4.5 q11 -5 19 -6q14 -2 21 -2q23 0 41 8q19 7 35 22q15 16 22 35q8 18 8 41v122v123h36h35v-210v-210h-35h-36v17v18q-12 -9 -24 -15q-9 -5 -25 -11q-8 -3 -28 -7q-18 -2 -29 -2z" unicode="ú"/>
<glyph glyph-name="ucircumflex" horiz-adv-x="431" d="M118 483l97 82l98 -82l-45 -53l-53 44l-52 -44zM214 0q-18 0 -35 3q-22 6 -33 11q-23 10 -30 16q-18 14 -26 21q-7 8 -21 26q-6 7 -16 30q-4 11 -10 33q-3 16 -3 35v122v123h35h36v-123v-122q0 -7 2 -21q1 -10 6 -21l9 -18q8 -10 13 -15t15 -13q16 -9 17 -10q11 -5 20 -6 q14 -2 21 -2q23 0 41 8q19 7 34 22t23 35q8 21 8 41v122v123h35h36v-210v-210h-36h-35v17v18q-12 -9 -24 -15q-7 -4 -26 -11q-4 -2 -13.5 -4t-13.5 -3q-18 -2 -29 -2z" unicode="û"/>
<glyph glyph-name="udieresis" horiz-adv-x="431" d="M240 440v48h49v-48h-49zM142 440v48h49v-48h-49zM214 0q-18 0 -35 3q-22 6 -33 11q-23 10 -30 16q-18 14 -26 21q-7 8 -21 26q-6 7 -16 30q-4 11 -10 33q-3 16 -3 35v122v123h35h36v-123v-122q0 -7 2 -21q1 -10 6 -21l9 -18q8 -10 13 -15t15 -13q16 -9 17 -10 q11 -5 20 -6q14 -2 21 -2q23 0 41 8q19 7 34 22t23 35q8 21 8 41v122v123h35h36v-210v-210h-36h-35v17v18q-12 -9 -24 -15q-7 -4 -26 -11q-4 -2 -13.5 -4t-13.5 -3q-18 -2 -29 -2z" unicode="ü"/>
<glyph glyph-name="yacute" horiz-adv-x="430" d="M286 503l-97 -82l-45 53l97 82zM390 25q0 -32 -14 -68q-14 -31 -37 -55q-17 -18 -55 -38q-34 -14 -69 -14t-69 14q-38 20 -56 38q-25 26 -37 55l65 28q8 -17 23 -34q10 -12 33 -23q20 -9 41 -9t41 9q23 11 33 23q17 21 22 34q9 20 9 40v10q-24 -17 -48 -26q-26 -9 -57 -9 q-35 0 -69 14q-38 20 -56 38q-25 26 -37 55q-13 30 -13 68v245h70v-245q0 -18 8 -40q5 -13 22 -34q14 -14 34 -23t41 -9t41 9q23 11 33 23q17 21 22 34q9 20 9 40v245h70v-395z" unicode="ý"/>
<glyph glyph-name="thorn" horiz-adv-x="477" d="M110 0v-180h-70v810h70v-351h188q58 0 98.5 -40.5t40.5 -98.5v-1q0 -58 -40.5 -98.5t-98.5 -40.5h-188zM298 208h-187v-137h187q28 0 48 20t20 49q0 28 -20 48t-48 20z" unicode="þ"/>
</font>
</defs>
</svg>
